<svg width="1054" height="1307" viewBox="0 0 1054 1307" fill="none" xmlns="http://www.w3.org/2000/svg">
<mask id="path-1-inside-1_103_42" fill="white">
<path fill-rule="evenodd" clip-rule="evenodd" d="M731.92 7.72787V29.0834C731.92 57.7251 708.701 80.9438 680.059 80.9438H381.178C352.536 80.9438 329.317 57.7251 329.317 29.0833V7.74334H328.889C328.894 7.60419 328.897 7.4643 328.897 7.32373C328.897 4.43503 327.677 1.83133 325.724 0H156.858C70.2278 0 0 70.2281 0 156.858V1307H1053.56V156.858C1053.56 70.2278 983.336 0 896.706 0H735.362C733.262 1.90911 731.937 4.66299 731.92 7.72787Z"/>
</mask>
<path fill-rule="evenodd" clip-rule="evenodd" d="M731.92 7.72787V29.0834C731.92 57.7251 708.701 80.9438 680.059 80.9438H381.178C352.536 80.9438 329.317 57.7251 329.317 29.0833V7.74334H328.889C328.894 7.60419 328.897 7.4643 328.897 7.32373C328.897 4.43503 327.677 1.83133 325.724 0H156.858C70.2278 0 0 70.2281 0 156.858V1307H1053.56V156.858C1053.56 70.2278 983.336 0 896.706 0H735.362C733.262 1.90911 731.937 4.66299 731.92 7.72787Z" fill="white"/>
<path d="M731.92 7.72787L730.92 7.72219V7.72787H731.92ZM329.317 7.74334H330.317V6.74334H329.317V7.74334ZM328.889 7.74334L327.89 7.70215L327.847 8.74334H328.889V7.74334ZM325.724 0L326.408 -0.729497L326.119 -1H325.724V0ZM0 1307H-1V1308H0V1307ZM1053.56 1307V1308H1054.56V1307H1053.56ZM735.362 0V-1H734.975L734.689 -0.739952L735.362 0ZM732.92 29.0834V7.72787H730.92V29.0834H732.92ZM680.059 81.9438C709.253 81.9438 732.92 58.2774 732.92 29.0834H730.92C730.92 57.1728 708.149 79.9438 680.059 79.9438V81.9438ZM381.178 81.9438H680.059V79.9438H381.178V81.9438ZM328.317 29.0833C328.317 58.2774 351.984 81.9438 381.178 81.9438V79.9438C353.088 79.9438 330.317 57.1728 330.317 29.0833H328.317ZM328.317 7.74334V29.0833H330.317V7.74334H328.317ZM328.889 8.74334H329.317V6.74334H328.889V8.74334ZM327.897 7.32373C327.897 7.45069 327.895 7.57684 327.89 7.70215L329.888 7.78454C329.894 7.63153 329.897 7.4779 329.897 7.32373H327.897ZM325.04 0.729497C326.8 2.37968 327.897 4.72276 327.897 7.32373H329.897C329.897 4.14729 328.554 1.28298 326.408 -0.729497L325.04 0.729497ZM156.858 1H325.724V-1H156.858V1ZM1 156.858C1 70.7804 70.7801 1 156.858 1V-1C69.6755 -1 -1 69.6758 -1 156.858H1ZM1 1307V156.858H-1V1307H1ZM1053.56 1306H0V1308H1053.56V1306ZM1052.56 156.858V1307H1054.56V156.858H1052.56ZM896.706 1C982.784 1 1052.56 70.7801 1052.56 156.858H1054.56C1054.56 69.6755 983.888 -1 896.706 -1V1ZM735.362 1H896.706V-1H735.362V1ZM732.92 7.73354C732.935 4.95919 734.133 2.46823 736.034 0.739952L734.689 -0.739952C732.39 1.35 730.939 4.3668 730.92 7.72219L732.92 7.73354Z" fill="" mask="url(#path-1-inside-1_103_42)"/>
</svg>
