<svg width="38" height="45" viewBox="0 0 38 45" fill="none" xmlns="http://www.w3.org/2000/svg">
<path d="M31.8189 31.8188L28.5471 28.547C34.0122 23.0819 34.0122 14.1891 28.5471 8.72356C23.082 3.25848 14.1897 3.25802 8.72368 8.72356C3.25859 14.1886 3.25859 23.0815 8.72368 28.547L5.4519 31.8188C-1.8173 24.5496 -1.8173 12.7214 5.4519 5.45224C12.7216 -1.81741 24.5492 -1.81741 31.8184 5.45224C39.0881 12.7214 39.0881 24.5496 31.8184 31.8188H31.8189Z" fill="#3498FE"/>
<path d="M25.6153 38.0195L18.6348 45L11.6543 38.0195L17.1812 28.1965C17.8187 27.0634 19.4505 27.0634 20.0879 28.1965L25.6148 38.0195H25.6153Z" fill="#3498FE"/>
<path d="M32.3025 32.4777V40.8626L22.5222 24.3542C20.7731 21.4016 16.5001 21.4016 14.751 24.3542L4.9707 40.8626V32.4777L18.6366 9.41064L32.3025 32.4777Z" fill="#3498FE"/>
</svg>
